<svg width="53" height="47" viewBox="0 0 53 47" fill="none" xmlns="http://www.w3.org/2000/svg">
<rect x="52.4184" y="46.9409" width="51.9831" height="46.9409" transform="rotate(180 52.4184 46.9409)" fill="#1BA0E1"/>
<path d="M17.3796 22.5217C16.8273 22.5217 16.3796 22.9694 16.3796 23.5217C16.3796 24.074 16.8273 24.5217 17.3796 24.5217L17.3796 22.5217ZM37.1267 24.2288C37.5172 23.8382 37.5172 23.2051 37.1267 22.8146L30.7627 16.4506C30.3722 16.0601 29.739 16.0601 29.3485 16.4506C28.958 16.8411 28.958 17.4743 29.3485 17.8648L35.0053 23.5217L29.3485 29.1785C28.958 29.569 28.958 30.2022 29.3485 30.5927C29.739 30.9833 30.3722 30.9833 30.7627 30.5927L37.1267 24.2288ZM17.3796 24.5217L36.4196 24.5217L36.4196 22.5217L17.3796 22.5217L17.3796 24.5217Z" fill="white"/>
</svg>
